<?xml version="1.0" standalone="no"?>
<!DOCTYPE svg PUBLIC "-//W3C//DTD SVG 20010904//EN"
 "http://www.w3.org/TR/2001/REC-SVG-20010904/DTD/svg10.dtd">
<svg version="1.0" xmlns="http://www.w3.org/2000/svg"
 width="460.000000pt" height="460.000000pt" viewBox="0 0 460.000000 460.000000"
 preserveAspectRatio="xMidYMid meet">
<metadata>
Created by potrace 1.11, written by Peter Selinger 2001-2013
</metadata>
<g transform="translate(0.000000,460.000000) scale(0.100000,-0.100000)"
fill="#000000" stroke="none">
<path d="M2240 4351 c-25 -10 -52 -21 -60 -24 -8 -4 -58 -20 -110 -37 -52 -17
-102 -34 -110 -37 -8 -3 -19 -7 -25 -9 -5 -1 -41 -14 -80 -29 -38 -14 -137
-49 -220 -77 -82 -28 -192 -66 -244 -84 -51 -19 -97 -31 -102 -28 -5 3 -9 1
-9 -3 0 -5 -23 -16 -51 -26 -40 -15 -53 -16 -65 -6 -12 10 -13 9 -9 -3 5 -12
-11 -21 -67 -38 -40 -12 -82 -28 -93 -35 -11 -6 -29 -14 -40 -17 -11 -4 -118
-40 -238 -81 -119 -42 -217 -73 -217 -69 0 4 -4 2 -8 -3 -4 -6 -32 -19 -62
-29 -54 -18 -55 -19 -54 -55 1 -20 4 -43 7 -51 5 -13 17 -87 22 -132 1 -10 -3
-18 -9 -18 -8 0 -8 -2 0 -8 16 -11 24 -52 11 -52 -8 0 -7 -4 2 -9 9 -6 11 -18
7 -36 -5 -20 -4 -25 6 -19 8 5 8 1 -2 -11 -9 -11 -10 -16 -2 -11 11 7 18 -34
14 -86 -1 -10 2 -18 7 -18 6 0 9 -8 9 -17 0 -10 2 -36 5 -58 4 -22 9 -62 12
-90 3 -27 8 -58 11 -69 5 -13 2 -17 -7 -12 -8 4 -6 1 4 -7 13 -11 15 -17 7
-22 -9 -5 -9 -10 -1 -14 5 -4 12 -35 13 -69 2 -34 5 -62 9 -62 5 0 10 -47 13
-107 1 -13 5 -23 9 -23 4 0 3 -10 -4 -21 -8 -15 -8 -19 0 -15 7 5 12 -5 13
-26 2 -47 3 -51 11 -65 5 -8 3 -13 -5 -13 -10 0 -10 -2 0 -9 8 -4 12 -19 11
-32 -2 -13 0 -30 4 -36 5 -8 3 -13 -5 -13 -8 0 -9 -3 -3 -8 13 -9 15 -17 28
-117 3 -22 10 -71 16 -109 5 -38 8 -73 5 -78 -3 -4 -1 -8 4 -8 6 0 9 -18 8
-40 0 -22 2 -40 6 -40 3 0 6 -15 6 -32 -1 -18 2 -40 5 -48 12 -33 14 -69 3
-63 -7 5 -7 2 1 -8 6 -8 14 -32 18 -53 6 -32 5 -37 -6 -31 -12 7 -12 6 -1 -7
7 -9 14 -30 17 -47 2 -17 7 -36 11 -42 4 -7 3 -9 -3 -6 -5 3 -10 0 -10 -8 0
-8 4 -12 9 -9 4 3 8 -5 9 -18 0 -13 2 -35 4 -51 3 -19 0 -25 -8 -21 -7 3 -4
-1 6 -9 10 -9 17 -28 17 -51 0 -31 7 -45 41 -77 22 -21 44 -39 47 -39 14 0 71
-57 65 -64 -4 -4 1 -4 12 0 15 6 17 4 12 -10 -4 -11 -3 -15 4 -10 6 4 14 3 18
-2 3 -5 19 -17 34 -27 15 -10 25 -22 22 -27 -6 -9 13 -24 31 -25 13 0 62 -36
107 -77 16 -16 33 -28 38 -28 5 0 9 -7 9 -15 0 -8 5 -14 12 -12 7 1 12 -3 13
-10 0 -7 7 -18 15 -25 12 -11 12 -11 1 5 -11 14 -11 17 3 17 9 0 16 -7 16 -16
0 -8 5 -12 10 -9 6 3 10 -1 10 -10 0 -10 5 -13 12 -9 8 5 9 2 4 -11 -5 -15 -4
-16 8 -6 12 10 17 9 28 -8 7 -12 18 -21 25 -21 19 0 27 -21 12 -32 -10 -7 -8
-8 7 -3 13 3 26 -1 34 -10 7 -8 16 -12 21 -9 5 3 9 -2 9 -10 0 -9 5 -16 10
-16 11 0 17 -4 62 -42 55 -48 65 -55 96 -74 18 -10 32 -22 32 -27 0 -4 -4 -5
-10 -2 -5 3 -10 1 -10 -5 0 -7 8 -9 21 -5 16 5 19 4 14 -5 -5 -8 -4 -11 3 -6
12 7 35 -9 90 -62 19 -17 38 -32 42 -32 5 0 10 -4 12 -8 2 -5 24 -23 51 -41
27 -18 45 -37 41 -43 -4 -6 -3 -8 3 -5 5 3 21 -4 35 -16 14 -12 36 -29 49 -37
12 -8 35 -27 50 -42 16 -15 29 -24 29 -21 0 4 11 -4 25 -17 20 -19 23 -26 12
-39 -11 -14 -10 -14 5 -2 16 12 22 10 54 -15 20 -16 48 -37 62 -47 15 -9 26
-22 25 -27 -2 -6 3 -9 10 -7 6 1 11 -6 9 -15 -1 -9 2 -19 8 -23 6 -3 7 0 4 9
-7 19 3 21 20 3 47 -46 110 -79 100 -52 -6 15 43 48 58 39 6 -4 8 -3 4 4 -7
12 39 59 67 68 9 3 17 10 17 16 0 6 3 9 6 6 3 -3 16 4 28 16 33 29 97 80 108
85 5 1 25 18 46 36 20 19 39 32 43 29 4 -2 9 3 13 11 3 8 10 15 16 15 6 0 23
12 39 27 48 48 72 64 83 57 6 -4 8 -3 5 3 -4 5 5 20 18 31 28 24 40 28 29 10
-4 -7 -3 -8 5 -4 6 4 9 11 6 16 -6 10 20 32 28 23 4 -3 7 2 7 12 0 10 3 16 6
12 3 -3 16 3 28 14 61 56 107 85 90 57 -4 -7 -3 -8 5 -4 6 4 9 11 7 15 -6 9
37 50 55 54 6 1 27 17 45 36 30 30 36 32 51 20 16 -12 17 -12 6 1 -9 12 -7 19
13 37 13 12 24 19 24 17 0 -3 10 5 22 16 12 11 28 18 35 16 8 -3 10 1 6 11 -5
13 -2 15 11 10 9 -4 15 -3 11 2 -8 14 62 64 76 55 7 -4 9 -3 6 3 -4 6 0 16 8
23 12 10 19 10 33 -1 15 -13 16 -12 4 3 -11 14 -7 21 33 55 25 21 49 38 52 38
3 0 23 17 44 38 38 36 68 50 53 25 -4 -8 -3 -10 2 -5 5 5 9 12 9 15 0 15 17
32 26 26 5 -3 8 -2 7 3 -2 4 0 8 4 8 4 0 15 10 24 23 9 14 22 21 31 18 8 -3
11 -2 8 4 -5 8 56 64 69 62 13 -3 51 46 54 69 2 27 10 64 12 64 1 0 3 14 5 30
10 91 24 194 32 225 8 31 10 50 12 96 1 23 5 33 12 28 8 -5 9 -2 2 10 -11 19
5 127 20 137 5 4 4 9 -2 13 -8 5 -8 13 -1 27 6 10 7 19 3 19 -4 0 -1 5 7 10 8
5 10 10 4 10 -6 0 -9 13 -6 30 3 19 8 27 16 23 6 -4 5 0 -2 9 -8 10 -9 19 -3
22 5 3 8 17 6 31 -1 14 2 28 7 31 4 3 6 10 2 15 -3 6 2 17 12 25 18 14 18 14
0 7 -13 -4 -17 -3 -12 5 7 12 19 93 18 125 -1 9 3 15 7 13 4 -3 7 12 6 32 -2
24 3 41 14 49 15 12 15 13 -1 7 -13 -4 -15 -1 -11 15 3 11 10 18 15 15 6 -4 6
1 0 13 -6 11 -7 25 -2 33 4 7 5 20 2 29 -5 14 -4 14 14 1 18 -14 18 -14 3 5
-16 21 -15 60 2 50 5 -4 9 -2 9 4 0 5 -6 12 -12 15 -10 5 -10 7 -1 12 7 3 9
12 6 20 -3 8 1 22 8 31 8 9 9 14 4 11 -12 -7 -13 31 -1 50 4 7 4 12 0 12 -3 0
-2 6 3 13 6 6 9 20 7 31 -2 16 7 85 21 156 2 13 6 39 7 57 1 18 7 33 13 33 5
0 4 4 -4 9 -9 6 -10 11 -3 15 6 4 8 14 5 23 -4 10 -2 14 5 9 6 -3 14 -2 17 4
4 6 1 9 -7 8 -15 -3 -12 35 3 40 5 2 9 8 9 13 0 6 -5 7 -10 4 -7 -4 -9 2 -5
17 10 38 13 61 14 86 1 16 5 21 14 16 9 -6 9 -4 1 7 -9 12 -11 33 -4 42 1 1 4
22 6 47 2 25 7 52 10 60 10 22 8 90 -2 99 -5 4 -29 14 -54 21 -25 8 -49 16
-55 20 -5 4 -30 12 -55 19 -25 7 -54 17 -65 22 -11 5 -76 27 -145 50 -69 23
-127 45 -130 48 -3 3 -15 7 -28 9 -12 2 -44 13 -70 25 -26 12 -49 22 -52 22
-10 1 -206 68 -230 78 -14 5 -30 11 -36 12 -7 2 -50 16 -95 33 -46 17 -95 33
-109 37 -14 4 -38 13 -55 19 -35 15 -96 36 -110 40 -35 8 -122 40 -134 50 -8
6 -15 9 -15 7 -1 -4 -68 15 -101 29 -11 5 -90 32 -175 60 -85 29 -159 56 -164
61 -14 13 -45 10 -96 -10z m-1270 -3091 c0 -5 -2 -10 -4 -10 -3 0 -8 5 -11 10
-3 6 -1 10 4 10 6 0 11 -4 11 -10z"/>
<path d="M510 2486 c0 -2 7 -7 16 -10 8 -3 12 -2 9 4 -6 10 -25 14 -25 6z"/>
<path d="M595 1800 c3 -5 8 -10 11 -10 2 0 4 5 4 10 0 6 -5 10 -11 10 -5 0 -7
-4 -4 -10z"/>
<path d="M707 1379 c7 -7 15 -10 18 -7 3 3 -2 9 -12 12 -14 6 -15 5 -6 -5z"/>
<path d="M3755 1341 c-3 -5 -2 -12 3 -15 5 -3 9 1 9 9 0 17 -3 19 -12 6z"/>
<path d="M893 1265 c0 -8 4 -12 9 -9 5 3 6 10 3 15 -9 13 -12 11 -12 -6z"/>
<path d="M3633 1233 c0 -9 4 -10 14 -2 7 6 13 12 13 14 0 1 -6 2 -13 2 -8 0
-14 -6 -14 -14z"/>
<path d="M995 1210 c10 -11 20 -20 23 -20 3 0 -3 9 -13 20 -10 11 -20 20 -23
20 -3 0 3 -9 13 -20z"/>
<path d="M956 1187 c3 -10 9 -15 12 -12 3 3 0 11 -7 18 -10 9 -11 8 -5 -6z"/>
<path d="M3526 1167 c-16 -12 -16 -13 2 -13 10 0 19 6 19 13 0 7 -1 13 -2 13
-1 0 -9 -6 -19 -13z"/>
<path d="M3396 1058 c3 -5 10 -6 15 -3 13 9 11 12 -6 12 -8 0 -12 -4 -9 -9z"/>
<path d="M3450 1060 c0 -5 5 -10 11 -10 5 0 7 5 4 10 -3 6 -8 10 -11 10 -2 0
-4 -4 -4 -10z"/>
<path d="M3330 979 c0 -5 5 -7 10 -4 6 3 10 8 10 11 0 2 -4 4 -10 4 -5 0 -10
-5 -10 -11z"/>
<path d="M1330 941 c0 -6 4 -13 10 -16 6 -3 7 1 4 9 -7 18 -14 21 -14 7z"/>
<path d="M1413 885 c0 -7 6 -11 14 -8 7 3 13 6 13 8 0 2 -6 5 -13 8 -8 3 -14
-1 -14 -8z"/>
<path d="M1475 831 c-3 -5 -2 -12 3 -15 5 -3 9 1 9 9 0 17 -3 19 -12 6z"/>
<path d="M1516 807 c3 -10 9 -15 12 -12 3 3 0 11 -7 18 -10 9 -11 8 -5 -6z"/>
<path d="M3041 776 c-9 -11 -9 -16 1 -22 7 -4 10 -4 6 1 -4 4 -3 14 3 22 6 7
9 13 6 13 -2 0 -10 -6 -16 -14z"/>
<path d="M1510 776 c0 -2 8 -10 18 -17 15 -13 16 -12 3 4 -13 16 -21 21 -21
13z"/>
<path d="M1550 736 c0 -2 8 -10 18 -17 15 -13 16 -12 3 4 -13 16 -21 21 -21
13z"/>
<path d="M1592 725 c3 -3 16 -8 28 -10 12 -2 20 -1 16 2 -4 4 -16 8 -28 10
-12 2 -19 1 -16 -2z"/>
<path d="M2939 698 c-6 -20 -6 -39 0 -42 4 -3 7 6 7 20 0 20 -4 32 -7 22z"/>
<path d="M2856 607 c3 -10 9 -15 12 -12 3 3 0 11 -7 18 -10 9 -11 8 -5 -6z"/>
<path d="M1719 593 c-13 -16 -12 -17 4 -4 16 13 21 21 13 21 -2 0 -10 -8 -17
-17z"/>
<path d="M1754 594 c1 -7 6 -17 10 -21 4 -4 6 -1 4 7 -2 9 3 14 12 12 8 -2 11
0 7 4 -13 14 -35 12 -33 -2z"/>
<path d="M2816 602 c-3 -5 1 -9 9 -9 8 0 12 4 9 9 -3 4 -7 8 -9 8 -2 0 -6 -4
-9 -8z"/>
<path d="M1854 526 c1 -14 5 -29 9 -32 3 -3 4 6 3 20 -2 15 -6 29 -9 32 -3 4
-5 -6 -3 -20z"/>
<path d="M2735 529 c-4 -6 -5 -12 -2 -15 2 -3 7 2 10 11 7 17 1 20 -8 4z"/>
<path d="M2668 488 c-10 -10 -14 -18 -9 -18 10 0 36 29 30 34 -2 1 -12 -6 -21
-16z"/>
<path d="M1953 455 c0 -8 4 -12 9 -9 5 3 6 10 3 15 -9 13 -12 11 -12 -6z"/>
<path d="M2616 441 c9 -9 34 -9 34 -1 0 5 -9 8 -20 7 -10 -1 -17 -3 -14 -6z"/>
<path d="M1975 420 c3 -5 8 -10 11 -10 2 0 4 5 4 10 0 6 -5 10 -11 10 -5 0 -7
-4 -4 -10z"/>
<path d="M2588 423 c7 -3 16 -2 19 1 4 3 -2 6 -13 5 -11 0 -14 -3 -6 -6z"/>
<path d="M2590 400 c0 -5 5 -10 11 -10 5 0 7 5 4 10 -3 6 -8 10 -11 10 -2 0
-4 -4 -4 -10z"/>
<path d="M2085 360 c10 -11 20 -20 23 -20 3 0 -3 9 -13 20 -10 11 -20 20 -23
20 -3 0 3 -9 13 -20z"/>
<path d="M2467 319 c7 -7 15 -10 18 -7 3 3 -2 9 -12 12 -14 6 -15 5 -6 -5z"/>
<path d="M2428 303 c7 -3 16 -2 19 1 4 3 -2 6 -13 5 -11 0 -14 -3 -6 -6z"/>
</g>
</svg>
